<?xml version="1.0" encoding="UTF-8" standalone="no"?><!DOCTYPE svg PUBLIC "-//W3C//DTD SVG 1.1//EN" "http://www.w3.org/Graphics/SVG/1.1/DTD/svg11.dtd"><svg width="100%" height="100%" viewBox="0 0 1029 1182" version="1.1" xmlns="http://www.w3.org/2000/svg" xmlns:xlink="http://www.w3.org/1999/xlink" xml:space="preserve" xmlns:serif="http://www.serif.com/" style="fill-rule:evenodd;clip-rule:evenodd;stroke-linejoin:round;stroke-miterlimit:2;"><rect id="shiny_fluent" x="0.264" y="0.651" width="1028" height="1181.1" style="fill:none;"/><g><g><path id="path78" d="M514.106,0.651l-513.837,295.267l-0,590.535l513.837,295.3l513.838,-295.3l0,-590.535l-513.838,-295.267Z" style="fill:#4ab76c;fill-rule:nonzero;"/></g><ellipse cx="497.668" cy="780.131" rx="359.243" ry="37.811" style="fill-opacity:0.14;"/><path d="M822.727,362.683l-54.323,61.473l-45.56,8.282l-62.845,-47.111l20.319,76.771l-94.255,-11.717l-92.869,-48.294l-109.355,14.345l-39.357,-54.943l36.907,-30.054l-25.008,-26.083l-50.291,6.667l-16.114,68.428l42.717,70.671l-65.018,124.172l-59.044,39.009l-67.11,126.877l5.97,32.863l55.193,-3.103l-24.619,-32.53l18.711,-25.607c-0,-0 95.287,-69.37 98.898,-70.727c3.612,-1.358 63.874,-22.413 63.874,-22.413l18.777,70.232l73.669,63.076l60.835,-7.882l-28.898,-27.489l-34.662,4.639l-19.793,-86.538l105.615,49.181l18.253,-0.968l64.701,112.48l62.273,-5.973l-30.893,-26.391l-8.912,0.803l-25.339,-84.662l70.751,-49.715l48.472,69.217l95.899,83.404l57.998,-9.342l-30.008,-30.139l-15.865,1.321l-55.839,-87.368l-21.77,-76.053l4.447,-23.489l46.509,-6.395l22.45,-36.657l-3.318,-32.322l-34.577,-24.073l22.404,-95.873Z" style="fill:#bbaa95;"/><path d="M668.479,395.493l34.079,46.462l12.776,-9.543l-46.855,-36.919Z" style="fill:#fff;"/><path d="M811.058,384.189l-34.079,51.866l-12.776,-7.518l46.855,-44.348Z" style="fill:#fff;"/><path d="M640.892,460.82l-90.155,35.185l13.3,-51.598l24.156,6.995l52.699,9.418" style="fill-opacity:0.15;"/><path d="M315.756,315.42l53.002,23.038l-25.58,16.767l-27.422,-39.805Z" style="fill-opacity:0.24;"/><path d="M762.496,526.935l-36.582,3.926l13.97,19.446l22.612,-23.372Z" style="fill:#886246;"/><path d="M767.397,562.863l-55.026,4.363l13.369,15.785l32.972,-3.016l8.685,-17.132" style="fill:#fff;"/><path d="M642.83,557.029l-12.883,-22.396l2.028,-32.976l40.408,-41.072l11.866,0.134l1.674,12.771l-30.161,31.866l0.354,34.487l13.504,26.296l-26.79,-9.11" style="fill-opacity:0.13;"/><path d="M452.097,450.511l-274.462,227.949l28.558,-59.835l245.904,-168.114Z" style="fill-opacity:0.15;"/><path d="M657.285,508.374l55.086,57.113l-33.503,4.395l-23.662,-33.785l2.079,-27.723Z" style="fill:#fff;"/><path d="M830.294,481.367l-57.173,76.151l32.08,-4.209l23.663,-39.993l1.43,-31.949Z" style="fill:#fff;"/><path d="M356.715,616.741l25.053,-7.885l41.452,26.513l28.191,87.767l33.546,-1.949l24.446,19.545c-0,-0 -27.302,10.24 -29.901,10.581c-2.599,0.34 -37.422,1.31 -37.422,1.31l-64.389,-60.801l-20.976,-75.081Z" style="fill:#886246;"/><path d="M430.179,655.757l-58.898,-3.851l-11.608,-35.214l19.731,-6.223l48.136,25.568l2.639,19.72Z" style="fill-opacity:0.38;"/><path d="M763.663,579.665l-24.558,6.097l-50.013,42.533l43.703,71.737l94.175,81.235l56.129,-7.349l-24.968,-27.393l-17.469,3.039l-54.012,-95.219l-22.987,-74.68Z" style="fill:#886246;"/><path d="M772.098,603.389l-52.051,68.425l-34.124,-44.73l53.262,-40.499l24.412,-5.559l8.501,22.363Z" style="fill-opacity:0.17;"/><path d="M763.376,586.919l-64.499,56.353l-9.849,-20.244l51.869,-36.687l26.702,-3.597" style="fill-opacity:0.23;"/><path d="M377.691,610.151l53.129,-20.866l109.823,-76.933l137.016,58.448l37.733,-4.949l17.068,20.489l9.745,0.269l-28.662,20.623l-15.806,-18.919l-39.647,9.171l-124.386,-48.019l-107.109,81.179l-48.904,-20.493Z" style="fill-opacity:0.16;"/><path d="M134.355,741.775l-0.355,-0.19l69.856,-130.158l-0.064,-0.089l0.181,-0.128l0.285,-0.531l0.264,0.142l57.017,-40.399l63.573,-118.451l0,-2.471l-43.463,-69.578l0.212,-0.132l-0.737,-0.191l19.006,-73.425l-0.03,-0.228l0.092,-0.013l0.163,-0.63l1.563,0.404l55.593,-7.293l0.097,0.74l0.005,-0.005l33.091,28.75l-7.47,8.599l-1.659,-1.441l1.693,2.389l-34.561,24.487l31.115,49.811l108.609,-14.247l0.132,1.009l0.24,-0.507l95.312,44.959l90.652,12.399l-19.919,-71.729l-18.071,-15.699l7.471,-8.599l76.699,66.637l1.937,-0l-0.041,-0.309l34.912,-4.58l-0,-0.489l3.728,0l1.096,-0.144l0.019,0.144l0.701,0l70.277,-79.495l9.727,8.599l-17.361,19.639l-21.053,81.33l34.415,29.9l0.508,0l-0,34.487l0.37,0.198l-23.634,44.035l0.03,0.227l-0.163,0.022l-0.239,0.443l-0.617,-0.331l-39.984,5.245l-5.514,10.273l21.825,78.587l54.763,87.668l14.087,-1.848l0.058,0.448l0.116,-0.133l31.761,27.595l0.03,-0.004l0.005,0.035l0.442,0.383l-0.34,0.392l1.405,10.713l-68.138,8.938l-0.033,-0.259l-0.197,0.226l-32.032,-27.83l-0.258,0.034l-0.039,-0.291l-65.75,-57.125l-0.295,0.184l-42.736,-68.414l-60.059,42.554l22.242,80.088l7.475,-0.981l0.025,0.194l0.178,-0.204l32.238,28.009l-1.001,1.152l1.226,9.346l-67.421,8.845l-0.092,-0.698l-0.424,0.264l-66.447,-106.373l-0.056,0.125l-82.614,-36.86l-0.371,0.419l-1.333,-1.18l-33.782,-15.072l19.662,70.798l28.634,-3.757l0.033,0.249l0.2,-0.229l36.104,31.368l-7.747,8.917l-0.257,-0.224l-62.008,8.134l-0.025,-0.187l-0.145,0.166l-32.034,-27.832l-0.525,0.069l-0.077,-0.592l-41.464,-36.024l0.779,-0.896l-1.374,0.381l-19.19,-69.101l-51.556,20.578l-109.198,77.37l-0.134,-0.189l-8.282,15.432l30.559,26.55l-7.747,8.917l-0.258,-0.224l-62.007,8.135l-0.036,-0.274l-0.933,0.259l-11.138,-40.107Zm653.135,-2.286l9.688,8.417l36.962,-4.849l-47.801,-76.522l-45.617,32.321l8.799,7.645l15.367,-10.09l4.613,7.623l-12.997,8.534l7.465,6.486l11.692,-7.677l4.612,7.623l-9.321,6.121l9.555,8.302l9.182,-6.029l4.612,7.623l-6.811,4.472Zm4.288,-38.361l4.612,7.624l-10.073,6.615l-4.613,-7.624l10.074,-6.615Zm-497.7,-164.143l-8.991,16.753l197.784,-140.136l-1.737,-2.78l-35.527,4.661l1.351,2.233l-10.996,7.22l-4.59,-7.586l-49.865,6.542l-44.109,32.379l-34.491,64.265l8.117,-5.331l4.613,7.624l-21.559,14.156Zm46.432,-53.875l4.612,7.623l-11.937,7.838l-4.612,-7.623l11.937,-7.838Zm-7.759,17.423l4.613,7.623l-10.996,7.22l-4.613,-7.623l10.996,-7.22Zm87.868,-75.768l4.612,7.624l-22.209,14.583l-4.612,-7.623l22.209,-14.584Zm-30.399,7.164l4.612,7.624l-11.937,7.838l-4.612,-7.623l11.937,-7.839Zm-187.837,248.715l45.458,-84.698l-34.017,24.101l-62.893,117.184l22.678,-2.975l10.634,-19.814l-6.766,2.35l-2.388,-8.722l15.454,-5.366l5.54,-10.322l-5.421,1.882l-2.387,-8.721l14.108,-4.899Zm516.376,-13.384l13.838,22.153l47.612,-33.735l-19.29,-69.462l-9.932,1.302l-56.869,40.294l10.16,16.265l13.202,-8.669l4.613,7.624l-13.096,8.599l5.044,8.075l14.212,-9.332l4.613,7.624l-14.107,9.262Zm25.611,-27.134l4.613,7.623l-10.074,6.615l-4.613,-7.623l10.074,-6.615Zm-143.732,111.647l6.582,10.536l27.431,-3.598l-12.357,-44.499l-36.114,14.414l9.74,15.594l9.43,-6.193l4.612,7.624l-9.324,6.122Zm116.127,-307.179l-35.695,40.377l35.695,-4.682l0,-35.695Zm0,65.371l0,-17.298l-17.297,2.269l17.297,15.029Zm0.861,28.635l-0.861,0l0,-8.434l-10.179,11.516l11.481,18.38l20.857,-2.736l-21.408,-18.6l0.11,-0.126Zm52.293,-17.658l0,11.66l0.373,0.329l-20.286,22.948l17.004,-2.231l12.896,-24.029l-9.987,-8.677Zm0,-35.256l0,15.046l15.046,-17.02l-15.046,1.974Zm-18.293,48.757l-18.828,2.47l9.414,8.178l9.414,-10.648Zm-64.927,29.734l18.865,-2.475l-6.905,-11.054l-11.96,13.529Zm-36.28,204.054l-36.508,4.789l11.245,18.003l44.741,-5.869l-19.478,-16.923Zm206.128,-16.389l-47.645,6.251l20.375,17.701l47.645,-6.25l-20.375,-17.702Zm-245.51,-78.163l-1.33,-1.877l11.093,-7.86l-87.299,-75.847l-55.49,62.769l63.857,28.492l-25.815,-41.327l9.735,-6.081l54.032,86.497l39.294,-15.683l-8.077,-29.083Zm-35.466,3.219l-7.911,5.76l-11.367,-15.286l7.911,-5.76l11.367,15.286Zm-15.416,-20.613l-7.911,5.76l-8.126,-10.927l7.911,-5.76l8.126,10.927Zm70.212,0.879l93.223,-66.051l-0.084,0.01l-0.116,-0.884l-10.68,-17.098l-41.012,5.38l-0.142,-1.082l-0.25,0.156l-0.715,-1.144l-13.686,-6.106l0.045,0.341l-109.574,14.374l82.991,72.104Zm11.439,-13.427l-7.911,5.761l-9.619,-9.069l7.911,-5.76l9.619,9.068Zm27.485,-22.704l-7.911,5.76l-7.173,-6.763l7.911,-5.76l7.173,6.763Zm1.396,-16.658l-7.911,5.76l-7.173,-6.762l7.911,-5.76l7.173,6.762Zm-45.045,25.185l-7.911,5.76l-9.619,-9.069l7.912,-5.76l9.618,9.069Zm31.275,2.349l-7.911,5.76l-17.697,-16.686l7.911,-5.76l17.697,16.686Zm150.958,-163.564l-37.956,-32.976l0,37.955l37.956,-4.979Zm-25.162,83.243l19.531,-2.562l-12.382,-10.758l-7.149,13.32Zm-26.896,22.915l4.055,-7.555l-14.063,1.845l0,0.006l-20.596,2.702l4.051,6.486l26.553,-3.484Zm1.938,-141.067l-28.833,3.783l-0,87.844l28.833,-3.782l-0,-87.845Zm49.836,-43.347l-31.46,35.587l18.163,15.781l13.297,-51.368Zm20.074,95.45l-7.429,-6.454l-15.668,2.055l-27.408,31.004l34.16,29.678l16.345,-30.453l-0,-25.83Zm-271.975,-43.258l-58.655,-27.668l46.534,74.494l12.121,-46.826Zm122.531,25.512l-26.675,-3.648l0.223,0.557l-99.15,39.574l-1.604,6.196l108.641,48.472l-12.247,-19.604l-0.467,-0l0,-33.74l-0.806,-0.713l32.254,-36.485l-0.169,-0.609Zm-87.704,43.87l-5.011,8.387l-12.245,-6.099l5.011,-8.386l12.245,6.098Zm18.725,8.363l-5.011,8.386l-12.246,-6.099l5.012,-8.386l12.245,6.099Zm1.771,-17.517l-5.011,8.386l-16.97,-8.452l5.011,-8.386l16.97,8.452Zm8.497,21.966l-5.012,8.386l-5.209,-2.594l5.011,-8.387l5.21,2.595Zm51.423,-126.871l16.744,60.293l22.872,-25.874l-39.616,-34.419Zm-316.789,-86.38l-34.302,4.5l22.016,35.245l31.964,-22.648l-19.678,-17.097Zm15.269,105.52l-32.136,-51.445l0,75.035l32.136,-23.59Zm211.66,37.51l-13.819,-6.518l-10.704,41.355l70.794,-28.256l-46.305,-6.333l0.034,-0.248Zm-191.314,157.235l75.825,33.831l53.096,-60.062l16.462,-63.598l-102.263,72.457l-0.62,-0.874l0.442,1.106l-42.942,17.14Zm74.936,12.299l7.593,4.852l-9.067,10.954l-7.592,-4.852l9.066,-10.954Zm10.08,-12.726l7.592,4.852l-6.189,7.478l-7.593,-4.852l6.19,-7.478Zm-26.098,9.679l7.592,4.852l-6.189,7.478l-7.593,-4.852l6.19,-7.478Zm30.393,102.599l-47.045,6.172l20.397,17.721l47.045,-6.171l-20.397,-17.722Zm-271.421,-25.317l44.76,-31.714l-35.301,14.09l-9.459,17.624Zm-10.86,65.591l-20.857,-18.121l-26.397,3.463l5.588,20.123l41.666,-5.465Zm439.294,-202.56l-87.998,-39.262l-13.614,52.592l101.612,-13.33Zm23.006,-24.671l14.43,23.101l36.001,-40.723l-25.143,-21.845l-15.685,2.057l-9.603,10.863l0,26.547Zm-279.222,134.206l3.627,13.058l44.371,-17.71l-7.867,-28.328l-45.179,-20.157l-8.74,3.488l5.551,19.988l7.537,-2.617l2.388,8.721l-7.506,2.606l3.399,12.241l12.035,-4.179l2.387,8.721l-12.003,4.168Zm30.675,40.258l9.763,8.482l21.601,-2.833l-10.861,-39.108l-40.437,16.14l12.081,10.496l12.75,-4.428l2.388,8.722l-7.285,2.529Zm85.825,-275.64l-6.126,-9.806l-180.816,204.536l15.654,-6.248l14.629,-15.789l6.523,6.006l-1.971,2.127l20.692,-8.259l-1.407,-1.295l18.362,-19.818l6.523,6.006l-8.434,9.103l45.451,-18.141l-0.029,-0.042l113.432,-80.371l-1.994,-3.19l-7.185,4.718l-4.612,-7.624l7.079,-4.648l-3.326,-5.324l-7.777,5.107l-4.612,-7.623l7.671,-5.037l-3.609,-5.777l-15.208,9.986l-4.612,-7.624l15.102,-9.916l-5.684,-9.098l-15.96,10.48l-4.613,-7.623l15.855,-10.411l-4.28,-6.851l-8.526,5.598l-4.612,-7.623l8.42,-5.529Zm-2.111,45.034l4.613,7.623l-18.777,12.329l-4.612,-7.623l18.776,-12.329Zm-48.901,31.828l4.612,7.623l-18.776,12.33l-4.613,-7.624l18.777,-12.329Zm-83.504,71.778l6.523,6.006l-15.331,16.546l-6.523,-6.006l15.331,-16.546Zm15.831,-17.689l6.523,6.005l-9.911,10.697l-6.523,-6.005l9.911,-10.697Zm131.314,-76.942l4.612,7.623l-10.649,6.993l-4.613,-7.623l10.65,-6.993Zm-37.498,23.678l4.613,7.623l-10.649,6.993l-4.613,-7.624l10.649,-6.992Zm12.713,-48.985l4.612,7.623l-10.649,6.993l-4.613,-7.623l10.65,-6.993Zm-216.42,182.645l14.857,-5.93l164.062,-185.584l-175.321,124.221l-44.982,83.811l23.133,-9.233l-0.316,-0.292l21.338,-23.029l6.523,6.005l-9.294,10.031Zm19.66,-34.954l6.523,6.006l-11.211,12.1l-6.523,-6.006l11.211,-12.1Zm6.907,-232.998l30.754,49.234l0,-82.011l-15.745,-25.206l-15.009,57.983Z"/></g></svg>